<svg xmlns="http://www.w3.org/2000/svg" width="70" height="70" viewBox="0 0 70 70" style="width: 100%; height: 100%;"><desc>Made with illustrio</desc>
  
<g class="base"><g fill="none" fill-rule="evenodd" stroke="none" class="main-fill">
    
    
  </g><g fill="none" transform="translate(17.818 17.818)" stroke="none" class="main-fill">
      <path d="M6.90390909 17.8181818L.0159090909 17.8181818C.127909091 20.8822727 1.04490909 23.744 2.56327273 26.1971818L8.42863636 26.1971818C7.51927273 23.744 6.97072727 20.8822727 6.90390909 17.8181818L6.90390909 17.8181818zM16.5454545 26.1971818L16.5454545 17.8181818 8.176 17.8181818C8.24536364 20.9204545 8.82063636 23.7968182 9.75990909 26.1971818L16.5454545 26.1971818 16.5454545 26.1971818zM16.5454545 1.31663636C14.0540909 1.62463636 11.8389091 3.72590909 10.3135455 6.89372727L16.5454545 6.89372727 16.5454545 1.31663636 16.5454545 1.31663636zM25.935 26.1971818L31.8003636 26.1971818C33.3193636 23.744 34.2350909 20.8822727 34.3477273 17.8181818L27.4597273 17.8181818C27.3929091 20.8822727 26.8443636 23.744 25.935 26.1971818L25.935 26.1971818zM17.8181818 1.31663636L17.8181818 6.89372727 24.0507273 6.89372727C22.5247273 3.72590909 20.3095455 1.62527273 17.8181818 1.31663636L17.8181818 1.31663636zM8.42863636 8.16645455L2.56327273 8.16645455C1.04490909 10.6196364.128545455 13.4813636.0159090909 16.5454545L6.90327273 16.5454545C6.97072727 13.4813636 7.51927273 10.6196364 8.42863636 8.16645455L8.42863636 8.16645455zM8.176 16.5454545L16.5454545 16.5454545 16.5454545 8.16645455 9.75927273 8.16645455C8.82 10.5674545 8.24536364 13.4431818 8.176 16.5454545L8.176 16.5454545zM16.5454545 33.047L16.5454545 27.4699091 10.3135455 27.4699091C11.8395455 30.6377273 14.0540909 32.7383636 16.5454545 33.047L16.5454545 33.047z" fill="none" stroke="none" class="main-fill"></path>
      <path d="M16.5454545 34.3273636C13.4425455 34.0091818 10.7061818 31.3860909 8.94727273 27.4699091L3.42936364 27.4699091C6.447 31.4936364 11.1872727 34.1510909 16.5454545 34.3477273L16.5454545 34.3273636 16.5454545 34.3273636zM8.94727273 6.89372727C10.7061818 2.97754545 13.4425455.354454545 16.5454545.0362727273L16.5454545.0159090909C11.1872727.212545455 6.447 2.87 3.42936364 6.89372727L8.94727273 6.89372727 8.94727273 6.89372727zM17.8181818 16.5454545L26.1876364 16.5454545C26.1182727 13.4431818 25.5436364 10.5674545 24.6043636 8.16645455L17.8181818 8.16645455 17.8181818 16.5454545 17.8181818 16.5454545zM25.4163636 27.4699091C23.6574545 31.3860909 20.9217273 34.0091818 17.8181818 34.3273636L17.8181818 34.3470909C23.1763636 34.1504545 27.9166364 31.4936364 30.9342727 27.4692727L25.4163636 27.4692727 25.4163636 27.4699091zM17.8181818.0362727273C20.9217273.354454545 23.6580909 2.97754545 25.4163636 6.89436364L30.9342727 6.89436364C27.9166364 2.87 23.1763636.212545455 17.8181818.0159090909L17.8181818.0362727273 17.8181818.0362727273z" fill="none" stroke="none" class="main-fill"></path>
      <path d="M24.0500909 27.4699091L17.8181818 27.4699091 17.8181818 33.047C20.3095455 32.7383636 22.5247273 30.6377273 24.0500909 27.4699091L24.0500909 27.4699091zM25.935 8.16645455C26.8443636 10.6196364 27.3929091 13.4813636 27.4597273 16.5454545L34.3470909 16.5454545C34.2344545 13.4813636 33.3187273 10.6196364 31.7997273 8.16645455L25.935 8.16645455 25.935 8.16645455zM26.1876364 17.8181818L17.8181818 17.8181818 17.8181818 26.1971818 24.6043636 26.1971818C25.5436364 23.7968182 26.1182727 20.9204545 26.1876364 17.8181818L26.1876364 17.8181818z" fill="none" stroke="none" class="main-fill"></path>
    </g></g><style>
          .main-fill {fill: #000000;}
          .main-stroke {stroke: #000000;}
          .secondary-fill {fill: #AAAAAA;}
          .secondary-stroke {stroke: #AAAAAA;}

          .main-fill--darken {fill: #000000;}
          .main-stroke--darken {stroke: #000000;}
          .secondary-fill--darken {fill: #848484;}
          .secondary-stroke--darken {stroke: #848484;}

          .main-fill--darkener {fill: #000000;}
          .main-stroke--darkener {stroke: #000000;}
          .secondary-fill--darkener {fill: #6a6a6a;}
          .secondary-stroke--darkener {stroke: #6a6a6a;}
        </style></svg>