<svg xmlns="http://www.w3.org/2000/svg" width="70" height="70" viewBox="0 0 70 70" style="width: 100%; height: 100%;"><desc>Made with illustrio</desc>
  
<defs fill="none" stroke="none"><filter id="Sivjigit5c0m2" filterUnits="userSpaceOnUse"><feGaussianBlur stdDeviation="1"></feGaussianBlur></filter></defs><g class="shadow" transform="matrix(1,0,0,1,0,2)"><g fill="none" fill-rule="evenodd" stroke="none" filter="url('#Sivjigit5c0m2')" style="fill-opacity: 0.8;" class="secondary-fill">
    
    <path fill="none" d="M15,30 C23.3,30 30,23.3 30,15 C30,6.7 23.3,0 15,0 C6.7,0 0,6.7 0,15 C0,23.3 6.7,30 15,30 L15,30 Z M14,5.2 C14.8,5.2 15.4,5.8 15.4,6.6 C15.4,7.4 14.8,8 14,8 C13.2,8 12.6,7.4 12.6,6.6 C12.6,5.9 13.2,5.2 14,5.2 L14,5.2 Z M12.6,10.8 C12.2,10.8 11.8,10.4 11.8,10 C11.8,9.6 12.2,9.2 12.6,9.2 L15,9.2 C15.4,9.2 15.8,9.6 15.8,10 L15.8,21.9 L17.4,21.9 C17.8,21.9 18.2,22.3 18.2,22.7 C18.2,23.1 17.8,23.5 17.4,23.5 L12.6,23.5 C12.2,23.5 11.8,23.1 11.8,22.7 C11.8,22.3 12.2,21.9 12.6,21.9 L14.2,21.9 L14.2,10.8 L12.6,10.8 L12.6,10.8 Z" transform="translate(20 20)" stroke="none" filter="url('#Sivjigit5c0m2')" style="fill-opacity: 0.8;" class="secondary-fill"></path>
  </g></g><g class="highlight"><g fill="#ffffff" fill-rule="evenodd" stroke="#ffffff" style="stroke-width: 2;">
    
    <path fill="#ffffff" d="M15,30 C23.3,30 30,23.3 30,15 C30,6.7 23.3,0 15,0 C6.7,0 0,6.7 0,15 C0,23.3 6.7,30 15,30 L15,30 Z M14,5.2 C14.8,5.2 15.4,5.8 15.4,6.6 C15.4,7.4 14.8,8 14,8 C13.2,8 12.6,7.4 12.6,6.6 C12.6,5.9 13.2,5.2 14,5.2 L14,5.2 Z M12.6,10.8 C12.2,10.8 11.8,10.4 11.8,10 C11.8,9.6 12.2,9.2 12.6,9.2 L15,9.2 C15.4,9.2 15.8,9.6 15.8,10 L15.8,21.9 L17.4,21.9 C17.8,21.9 18.2,22.3 18.2,22.7 C18.2,23.1 17.8,23.5 17.4,23.5 L12.6,23.5 C12.2,23.5 11.8,23.1 11.8,22.7 C11.8,22.3 12.2,21.9 12.6,21.9 L14.2,21.9 L14.2,10.8 L12.6,10.8 L12.6,10.8 Z" transform="translate(20 20)" stroke="#ffffff" style="stroke-width: 2;"></path>
  </g></g><g class="base"><g fill="none" fill-rule="evenodd" stroke="none" class="main-fill">
    
    <path fill="none" d="M15,30 C23.3,30 30,23.3 30,15 C30,6.7 23.3,0 15,0 C6.7,0 0,6.7 0,15 C0,23.3 6.7,30 15,30 L15,30 Z M14,5.2 C14.8,5.2 15.4,5.8 15.4,6.6 C15.4,7.4 14.8,8 14,8 C13.2,8 12.6,7.4 12.6,6.6 C12.6,5.9 13.2,5.2 14,5.2 L14,5.2 Z M12.6,10.8 C12.2,10.8 11.8,10.4 11.8,10 C11.8,9.6 12.2,9.2 12.6,9.2 L15,9.2 C15.4,9.2 15.8,9.6 15.8,10 L15.8,21.9 L17.4,21.9 C17.8,21.9 18.2,22.3 18.2,22.7 C18.2,23.1 17.8,23.5 17.4,23.5 L12.6,23.5 C12.2,23.5 11.8,23.1 11.8,22.7 C11.8,22.3 12.2,21.9 12.6,21.9 L14.2,21.9 L14.2,10.8 L12.6,10.8 L12.6,10.8 Z" transform="translate(20 20)" stroke="none" class="main-fill"></path>
  </g></g><style>
          .main-fill {fill: #0055AA;}
          .main-stroke {stroke: #0055AA;}
          .secondary-fill {fill: #AAAAAA;}
          .secondary-stroke {stroke: #AAAAAA;}

          .main-fill--darken {fill: #002f5d;}
          .main-stroke--darken {stroke: #002f5d;}
          .secondary-fill--darken {fill: #848484;}
          .secondary-stroke--darken {stroke: #848484;}

          .main-fill--darkener {fill: #00152a;}
          .main-stroke--darkener {stroke: #00152a;}
          .secondary-fill--darkener {fill: #6a6a6a;}
          .secondary-stroke--darkener {stroke: #6a6a6a;}
        </style></svg>