<svg xmlns="http://www.w3.org/2000/svg" width="70" height="70" viewBox="0 0 70 70" style="width: 100%; height: 100%;"><desc>Made with illustrio</desc>
  
<defs fill="none" stroke="none"><filter id="Siwp1hydaydt" filterUnits="userSpaceOnUse"><feGaussianBlur stdDeviation="1"></feGaussianBlur></filter></defs><g class="shadow" transform="matrix(1,0,0,1,0,2)"><g fill="none" fill-rule="evenodd" stroke="none" filter="url('#Siwp1hydaydt')" style="fill-opacity: 0.8;" class="secondary-fill">
    
    
    <path fill="none" d="M1.15808824,0.149132941 C0.863827526,0.16286743 0.599253859,0.332565131 0.464052816,0.594287655 C0.328851773,0.856010179 0.343569324,1.16998459 0.502660216,1.41791218 C0.661751108,1.66583976 0.941038925,1.81004396 1.23529412,1.79619176 L5.37867647,1.79619176 C5.74400894,11.9054485 12.7647059,12.5326217 12.7647059,18.26678 C12.7647059,24.0008901 5.74400894,24.6281091 5.37867647,34.7373682 L1.23529412,34.7373682 C1.20957297,34.7361614 1.18380938,34.7361614 1.15808824,34.7373682 C0.863827526,34.7511027 0.599253859,34.9208004 0.464052816,35.1825229 C0.328851773,35.4442455 0.343569324,35.7582199 0.502660216,36.0061475 C0.661751108,36.2540751 0.941038925,36.3982793 1.23529412,36.3844271 L31.7058824,36.3844271 C32.0028766,36.3886273 32.2791258,36.2325886 32.4288487,35.9760612 C32.5785716,35.7195338 32.5785716,35.4022615 32.4288487,35.1457341 C32.2791258,34.8892067 32.0028766,34.733168 31.7058824,34.7373682 L27.5625,34.7373682 C27.1971675,24.6281091 20.1764706,24.0008901 20.1764706,18.26678 C20.1764706,12.5326419 27.1971675,11.905453 27.5625,1.79619176 L31.7058824,1.79619176 C32.0028766,1.800392 32.2791258,1.64435329 32.4288487,1.38782589 C32.5785716,1.13129849 32.5785716,0.814026214 32.4288487,0.557498817 C32.2791258,0.30097142 32.0028766,0.144932703 31.7058824,0.149132941 L1.23529412,0.149132941 C1.20957297,0.147926057 1.18380938,0.147926057 1.15808824,0.149132941 Z M11.1176471,8.38442706 L16.4705882,8.38442706 L21.8235294,8.38442706 C19.3529412,11.6785447 17.2941176,13.3255994 16.4705882,17.0314859 C15.6470588,13.3255994 13.5882353,11.6785447 11.1176471,8.38442706 Z M16.4705882,19.0903094 C16.4705882,26.7439035 23.8823529,26.1295506 23.8823529,34.7373682 L16.4705882,34.7373682 L9.05882353,34.7373682 C9.05882353,26.1295506 16.4705882,26.7439035 16.4705882,19.0903094 Z" transform="translate(18.53 16.733)" stroke="none" filter="url('#Siwp1hydaydt')" style="fill-opacity: 0.8;" class="secondary-fill"></path>
  </g></g><g class="highlight"><g fill="#ffffff" fill-rule="evenodd" stroke="#ffffff" style="stroke-width: 2;">
    
    
    <path fill="#ffffff" d="M1.15808824,0.149132941 C0.863827526,0.16286743 0.599253859,0.332565131 0.464052816,0.594287655 C0.328851773,0.856010179 0.343569324,1.16998459 0.502660216,1.41791218 C0.661751108,1.66583976 0.941038925,1.81004396 1.23529412,1.79619176 L5.37867647,1.79619176 C5.74400894,11.9054485 12.7647059,12.5326217 12.7647059,18.26678 C12.7647059,24.0008901 5.74400894,24.6281091 5.37867647,34.7373682 L1.23529412,34.7373682 C1.20957297,34.7361614 1.18380938,34.7361614 1.15808824,34.7373682 C0.863827526,34.7511027 0.599253859,34.9208004 0.464052816,35.1825229 C0.328851773,35.4442455 0.343569324,35.7582199 0.502660216,36.0061475 C0.661751108,36.2540751 0.941038925,36.3982793 1.23529412,36.3844271 L31.7058824,36.3844271 C32.0028766,36.3886273 32.2791258,36.2325886 32.4288487,35.9760612 C32.5785716,35.7195338 32.5785716,35.4022615 32.4288487,35.1457341 C32.2791258,34.8892067 32.0028766,34.733168 31.7058824,34.7373682 L27.5625,34.7373682 C27.1971675,24.6281091 20.1764706,24.0008901 20.1764706,18.26678 C20.1764706,12.5326419 27.1971675,11.905453 27.5625,1.79619176 L31.7058824,1.79619176 C32.0028766,1.800392 32.2791258,1.64435329 32.4288487,1.38782589 C32.5785716,1.13129849 32.5785716,0.814026214 32.4288487,0.557498817 C32.2791258,0.30097142 32.0028766,0.144932703 31.7058824,0.149132941 L1.23529412,0.149132941 C1.20957297,0.147926057 1.18380938,0.147926057 1.15808824,0.149132941 Z M11.1176471,8.38442706 L16.4705882,8.38442706 L21.8235294,8.38442706 C19.3529412,11.6785447 17.2941176,13.3255994 16.4705882,17.0314859 C15.6470588,13.3255994 13.5882353,11.6785447 11.1176471,8.38442706 Z M16.4705882,19.0903094 C16.4705882,26.7439035 23.8823529,26.1295506 23.8823529,34.7373682 L16.4705882,34.7373682 L9.05882353,34.7373682 C9.05882353,26.1295506 16.4705882,26.7439035 16.4705882,19.0903094 Z" transform="translate(18.53 16.733)" stroke="#ffffff" style="stroke-width: 2;"></path>
  </g></g><g class="base"><g fill="none" fill-rule="evenodd" stroke="none" class="main-fill">
    
    
    <path fill="none" d="M1.15808824,0.149132941 C0.863827526,0.16286743 0.599253859,0.332565131 0.464052816,0.594287655 C0.328851773,0.856010179 0.343569324,1.16998459 0.502660216,1.41791218 C0.661751108,1.66583976 0.941038925,1.81004396 1.23529412,1.79619176 L5.37867647,1.79619176 C5.74400894,11.9054485 12.7647059,12.5326217 12.7647059,18.26678 C12.7647059,24.0008901 5.74400894,24.6281091 5.37867647,34.7373682 L1.23529412,34.7373682 C1.20957297,34.7361614 1.18380938,34.7361614 1.15808824,34.7373682 C0.863827526,34.7511027 0.599253859,34.9208004 0.464052816,35.1825229 C0.328851773,35.4442455 0.343569324,35.7582199 0.502660216,36.0061475 C0.661751108,36.2540751 0.941038925,36.3982793 1.23529412,36.3844271 L31.7058824,36.3844271 C32.0028766,36.3886273 32.2791258,36.2325886 32.4288487,35.9760612 C32.5785716,35.7195338 32.5785716,35.4022615 32.4288487,35.1457341 C32.2791258,34.8892067 32.0028766,34.733168 31.7058824,34.7373682 L27.5625,34.7373682 C27.1971675,24.6281091 20.1764706,24.0008901 20.1764706,18.26678 C20.1764706,12.5326419 27.1971675,11.905453 27.5625,1.79619176 L31.7058824,1.79619176 C32.0028766,1.800392 32.2791258,1.64435329 32.4288487,1.38782589 C32.5785716,1.13129849 32.5785716,0.814026214 32.4288487,0.557498817 C32.2791258,0.30097142 32.0028766,0.144932703 31.7058824,0.149132941 L1.23529412,0.149132941 C1.20957297,0.147926057 1.18380938,0.147926057 1.15808824,0.149132941 Z M11.1176471,8.38442706 L16.4705882,8.38442706 L21.8235294,8.38442706 C19.3529412,11.6785447 17.2941176,13.3255994 16.4705882,17.0314859 C15.6470588,13.3255994 13.5882353,11.6785447 11.1176471,8.38442706 Z M16.4705882,19.0903094 C16.4705882,26.7439035 23.8823529,26.1295506 23.8823529,34.7373682 L16.4705882,34.7373682 L9.05882353,34.7373682 C9.05882353,26.1295506 16.4705882,26.7439035 16.4705882,19.0903094 Z" transform="translate(18.53 16.733)" stroke="none" class="main-fill"></path>
  </g></g><style>
          .main-fill {fill: #000000;}
          .main-stroke {stroke: #000000;}
          .secondary-fill {fill: #AAAAAA;}
          .secondary-stroke {stroke: #AAAAAA;}

          .main-fill--darken {fill: #000000;}
          .main-stroke--darken {stroke: #000000;}
          .secondary-fill--darken {fill: #848484;}
          .secondary-stroke--darken {stroke: #848484;}

          .main-fill--darkener {fill: #000000;}
          .main-stroke--darkener {stroke: #000000;}
          .secondary-fill--darkener {fill: #6a6a6a;}
          .secondary-stroke--darkener {stroke: #6a6a6a;}
        </style></svg>