<svg xmlns="http://www.w3.org/2000/svg" width="70" height="70" viewBox="0 0 70 70" style="width: 100%; height: 100%;"><desc>Made with illustrio</desc>
  
<defs fill="none" stroke="none"><filter id="Sivv5e5t13fpg" filterUnits="userSpaceOnUse"><feGaussianBlur stdDeviation="1"></feGaussianBlur></filter></defs><g class="shadow" transform="matrix(1,0,0,1,0,2)"><g fill="none" fill-rule="evenodd" stroke="none" filter="url('#Sivv5e5t13fpg')" style="fill-opacity: 0.8;" class="secondary-fill">
    
    <path fill="none" d="M15.9090909,0 C7.13681818,0 0,7.13681818 0,15.9090909 C0,24.6813636 7.13681818,31.8181818 15.9090909,31.8181818 C24.6813636,31.8181818 31.8181818,24.6813636 31.8181818,15.9090909 C31.8181818,7.13681818 24.6813636,0 15.9090909,0 L15.9090909,0 Z M23.5588182,22.6583636 C23.8076364,22.9071818 23.8076364,23.3093636 23.5588182,23.5581818 C23.4347273,23.6822727 23.2718182,23.7446364 23.1089091,23.7446364 C22.946,23.7446364 22.7830909,23.6822727 22.659,23.5581818 L15.9090909,16.8089091 L9.15981818,23.5588182 C9.03572727,23.6829091 8.87281818,23.7452727 8.70990909,23.7452727 C8.547,23.7452727 8.38409091,23.6829091 8.26,23.5588182 C8.01118182,23.31 8.01118182,22.9078182 8.26,22.659 L15.0092727,15.9090909 L8.25936364,9.15981818 C8.01054545,8.911 8.01054545,8.50881818 8.25936364,8.26 C8.50818182,8.01118182 8.91036364,8.01118182 9.15918182,8.26 L15.9090909,15.0092727 L22.6583636,8.26 C22.9071818,8.01118182 23.3093636,8.01118182 23.5581818,8.26 C23.807,8.50881818 23.807,8.911 23.5581818,9.15981818 L16.8089091,15.9090909 L23.5588182,22.6583636 L23.5588182,22.6583636 Z" transform="translate(19.09 19.09)" stroke="none" filter="url('#Sivv5e5t13fpg')" style="fill-opacity: 0.8;" class="secondary-fill"></path>
  </g></g><g class="highlight"><g fill="#ffffff" fill-rule="evenodd" stroke="#ffffff" style="stroke-width: 2;">
    
    <path fill="#ffffff" d="M15.9090909,0 C7.13681818,0 0,7.13681818 0,15.9090909 C0,24.6813636 7.13681818,31.8181818 15.9090909,31.8181818 C24.6813636,31.8181818 31.8181818,24.6813636 31.8181818,15.9090909 C31.8181818,7.13681818 24.6813636,0 15.9090909,0 L15.9090909,0 Z M23.5588182,22.6583636 C23.8076364,22.9071818 23.8076364,23.3093636 23.5588182,23.5581818 C23.4347273,23.6822727 23.2718182,23.7446364 23.1089091,23.7446364 C22.946,23.7446364 22.7830909,23.6822727 22.659,23.5581818 L15.9090909,16.8089091 L9.15981818,23.5588182 C9.03572727,23.6829091 8.87281818,23.7452727 8.70990909,23.7452727 C8.547,23.7452727 8.38409091,23.6829091 8.26,23.5588182 C8.01118182,23.31 8.01118182,22.9078182 8.26,22.659 L15.0092727,15.9090909 L8.25936364,9.15981818 C8.01054545,8.911 8.01054545,8.50881818 8.25936364,8.26 C8.50818182,8.01118182 8.91036364,8.01118182 9.15918182,8.26 L15.9090909,15.0092727 L22.6583636,8.26 C22.9071818,8.01118182 23.3093636,8.01118182 23.5581818,8.26 C23.807,8.50881818 23.807,8.911 23.5581818,9.15981818 L16.8089091,15.9090909 L23.5588182,22.6583636 L23.5588182,22.6583636 Z" transform="translate(19.09 19.09)" stroke="#ffffff" style="stroke-width: 2;"></path>
  </g></g><g class="base"><g fill="none" fill-rule="evenodd" stroke="none" class="main-fill">
    
    <path fill="none" d="M15.9090909,0 C7.13681818,0 0,7.13681818 0,15.9090909 C0,24.6813636 7.13681818,31.8181818 15.9090909,31.8181818 C24.6813636,31.8181818 31.8181818,24.6813636 31.8181818,15.9090909 C31.8181818,7.13681818 24.6813636,0 15.9090909,0 L15.9090909,0 Z M23.5588182,22.6583636 C23.8076364,22.9071818 23.8076364,23.3093636 23.5588182,23.5581818 C23.4347273,23.6822727 23.2718182,23.7446364 23.1089091,23.7446364 C22.946,23.7446364 22.7830909,23.6822727 22.659,23.5581818 L15.9090909,16.8089091 L9.15981818,23.5588182 C9.03572727,23.6829091 8.87281818,23.7452727 8.70990909,23.7452727 C8.547,23.7452727 8.38409091,23.6829091 8.26,23.5588182 C8.01118182,23.31 8.01118182,22.9078182 8.26,22.659 L15.0092727,15.9090909 L8.25936364,9.15981818 C8.01054545,8.911 8.01054545,8.50881818 8.25936364,8.26 C8.50818182,8.01118182 8.91036364,8.01118182 9.15918182,8.26 L15.9090909,15.0092727 L22.6583636,8.26 C22.9071818,8.01118182 23.3093636,8.01118182 23.5581818,8.26 C23.807,8.50881818 23.807,8.911 23.5581818,9.15981818 L16.8089091,15.9090909 L23.5588182,22.6583636 L23.5588182,22.6583636 Z" transform="translate(19.09 19.09)" stroke="none" class="main-fill"></path>
  </g></g><style>
          .main-fill {fill: #AA0000;}
          .main-stroke {stroke: #AA0000;}
          .secondary-fill {fill: #555555;}
          .secondary-stroke {stroke: #555555;}

          .main-fill--darken {fill: #5d0000;}
          .main-stroke--darken {stroke: #5d0000;}
          .secondary-fill--darken {fill: #2f2f2f;}
          .secondary-stroke--darken {stroke: #2f2f2f;}

          .main-fill--darkener {fill: #2a0000;}
          .main-stroke--darkener {stroke: #2a0000;}
          .secondary-fill--darkener {fill: #151515;}
          .secondary-stroke--darkener {stroke: #151515;}
        </style></svg>