<svg xmlns="http://www.w3.org/2000/svg" width="70" height="70" viewBox="0 0 70 70" style="width: 100%; height: 100%;"><desc>Made with illustrio</desc>
  
<g class="base"><g fill="none" fill-rule="evenodd" stroke="none" class="main-fill">
    
    <path fill="none" d="M32,2 L32,12 L22,12 L25.406,8.594 C23.031,5.656 19.602,4 16,4 C9.371,4 4,9.375 4,16 L0,16 C0,7.164 7.164,0 16,0 C20.801,0 25.332,2.387 28.266,5.734 L32,2 Z M16,28 C12.398,28 8.969,26.344 6.594,23.406 L10,20 L0,20 L0,30 L3.734,26.266 C6.668,29.617 11.199,32 16,32 C24.836,32 32,24.836 32,16 L28,16 C28,22.629 22.625,28 16,28 Z" transform="translate(19 19)" stroke="none" class="main-fill"></path>
  </g></g><style>
          .main-fill {fill: #000000;}
          .main-stroke {stroke: #000000;}
          .secondary-fill {fill: #AAAAAA;}
          .secondary-stroke {stroke: #AAAAAA;}

          .main-fill--darken {fill: #000000;}
          .main-stroke--darken {stroke: #000000;}
          .secondary-fill--darken {fill: #848484;}
          .secondary-stroke--darken {stroke: #848484;}

          .main-fill--darkener {fill: #000000;}
          .main-stroke--darkener {stroke: #000000;}
          .secondary-fill--darkener {fill: #6a6a6a;}
          .secondary-stroke--darkener {stroke: #6a6a6a;}
        </style></svg>