<svg xmlns="http://www.w3.org/2000/svg" width="70" height="70" viewBox="0 0 70 70" style="width: 100%; height: 100%;"><desc>Made with illustrio</desc>
  
<g class="base"><g fill="none" fill-rule="evenodd" stroke="none" class="main-fill">
    
    
    <path fill="none" d="M16.4705882,0.149132941 C16.0823728,0.149132941 15.6470588,0.565563641 15.6470588,0.972662353 L15.6470588,3.44325059 C15.6409112,3.87832776 16.0354678,4.27849676 16.4705882,4.27849676 C16.9057086,4.27849676 17.3002645,3.87832776 17.2941176,3.44325059 L17.2941176,0.972662353 C17.2941176,0.505386124 16.8588037,0.149132941 16.4705882,0.149132941 Z M27.5882353,5.06457412 C27.5536965,5.06671529 27.5192923,5.07099765 27.4852941,5.07744176 C27.3054604,5.10342412 27.1350878,5.19091094 27.0091912,5.32192706 L25.3621324,6.96898588 C25.0457534,7.26987594 25.0371104,7.83451488 25.34413,8.14494759 C25.6511512,8.45538029 26.2158507,8.45297682 26.5202185,8.13994053 L28.1672774,6.49288171 C28.4112891,6.26743847 28.4964561,5.88637906 28.3716411,5.57850341 C28.2468286,5.27062859 27.9203503,5.05645247 27.5882353,5.06457412 Z M5.26286765,5.07744176 C4.95104976,5.10778882 4.66647176,5.33213471 4.56417582,5.62825447 C4.46187988,5.92437424 4.54729759,6.27653847 4.77389706,6.49288294 L6.42095588,8.13994176 C6.72532371,8.45297682 7.29002318,8.45538029 7.59704441,8.14494882 C7.90406606,7.83451612 7.89542312,7.26987718 7.57904618,6.96898712 L5.93198735,5.32192829 C5.76046882,5.14618918 5.50728335,5.05367924 5.26286765,5.07744176 Z M16.4705882,7.56089765 C11.8675179,7.56089765 7.41176471,11.3134453 7.41176471,16.6197212 C7.41176471,23.0937716 11.7799689,24.0501228 12.3014706,28.1491329 L20.6397059,28.1491329 C21.1612075,24.0501228 25.5294118,23.0937716 25.5294118,16.6197212 C25.5294118,11.3134453 21.0736585,7.56089765 16.4705882,7.56089765 Z M28.4117647,17.0314859 C28.4117647,17.4197014 28.8020715,17.8550153 29.2352941,17.8550153 L32.1176471,17.8550153 C32.5527242,17.8611629 32.9411765,17.4666063 32.9411765,17.0314859 C32.9411765,16.5963655 32.5527242,16.2018096 32.1176471,16.2079565 L29.2352941,16.2079565 C28.7608411,16.2079565 28.4117647,16.6432704 28.4117647,17.0314859 Z M0,17.0314859 C0,17.4197014 0.391801941,17.8550153 0.823529412,17.8550153 L3.29411765,17.8550153 C3.72919482,17.8611629 4.12936382,17.4666063 4.12936382,17.0314859 C4.12936382,16.5963655 3.72919482,16.2018096 3.29411765,16.2079565 L0.823529412,16.2079565 C0.349863294,16.2079565 0,16.6432704 0,17.0314859 Z M7.51470588,25.0351624 C7.30229335,25.04355 7.09451771,25.137994 6.94852941,25.2925153 L4.82536765,27.4028094 C4.50898865,27.7036995 4.50034571,28.2683384 4.80736941,28.5787711 C5.11439065,28.8892038 5.67909012,28.8868004 5.98345794,28.5737641 L8.10661765,26.4506035 C8.34309247,26.2219234 8.42083818,25.8442837 8.29392324,25.5407917 C8.16700829,25.2372997 7.84357494,25.0274257 7.51470588,25.0351624 Z M25.3235294,25.0351624 C25.0117115,25.0655094 24.7271335,25.2898553 24.6248376,25.5859751 C24.5225416,25.8820948 24.6079594,26.2342591 24.8345588,26.4506035 L26.9577206,28.5737653 C27.2620884,28.8868004 27.8267879,28.8892038 28.1338091,28.5787724 C28.4408308,28.2683396 28.4321878,27.7037007 28.1158068,27.4028106 L25.9926471,25.2925153 C25.8406602,25.1319781 25.6217998,25.0368209 25.4007353,25.0351624 C25.3750206,25.0339682 25.3492458,25.0339682 25.3235294,25.0351624 Z M12.3529412,29.7961918 L12.3529412,33.9138388 C12.3529412,34.8601153 13.1309796,35.5608976 14,35.5608976 L18.9411765,35.5608976 C19.8101964,35.5608976 20.5882353,34.8601153 20.5882353,33.9138388 L20.5882353,29.7961918 L12.3529412,29.7961918 Z" transform="translate(18.53 17.145)" stroke="none" class="main-fill"></path>
  </g></g><style>
          .main-fill {fill: #000000;}
          .main-stroke {stroke: #000000;}
          .secondary-fill {fill: #AAAAAA;}
          .secondary-stroke {stroke: #AAAAAA;}

          .main-fill--darken {fill: #000000;}
          .main-stroke--darken {stroke: #000000;}
          .secondary-fill--darken {fill: #848484;}
          .secondary-stroke--darken {stroke: #848484;}

          .main-fill--darkener {fill: #000000;}
          .main-stroke--darkener {stroke: #000000;}
          .secondary-fill--darkener {fill: #6a6a6a;}
          .secondary-stroke--darkener {stroke: #6a6a6a;}
        </style></svg>