<svg xmlns="http://www.w3.org/2000/svg" width="70" height="70" viewBox="0 0 70 70" style="width: 100%; height: 100%;"><desc>Made with illustrio</desc>
  
<defs fill="none" stroke="none"><filter id="Sivv5e5t14906" filterUnits="userSpaceOnUse"><feGaussianBlur stdDeviation="1"></feGaussianBlur></filter></defs><g class="shadow" transform="matrix(1,0,0,1,0,2)"><g fill="none" fill-rule="evenodd" stroke="none" filter="url('#Sivv5e5t14906')" style="fill-opacity: 0.8;" class="secondary-fill">
    
    <path fill="none" d="M15.9090909,0 C7.13681818,0 0,7.13681818 0,15.9090909 C0,24.6813636 7.13681818,31.8181818 15.9090909,31.8181818 C24.6813636,31.8181818 31.8181818,24.6813636 31.8181818,15.9090909 C31.8181818,7.13681818 24.6813636,0 15.9090909,0 L15.9090909,0 Z M15.9090909,24.1818182 C15.5578182,24.1818182 15.2727273,23.8973636 15.2727273,23.5454545 C15.2727273,23.1935455 15.5578182,22.9090909 15.9090909,22.9090909 C16.261,22.9090909 16.5454545,23.1935455 16.5454545,23.5454545 C16.5454545,23.8973636 16.261,24.1818182 15.9090909,24.1818182 L15.9090909,24.1818182 Z M16.5454545,16.5002727 L16.5454545,18.4545455 C16.5454545,18.8064545 16.2603636,19.0909091 15.9090909,19.0909091 C15.5578182,19.0909091 15.2727273,18.8064545 15.2727273,18.4545455 L15.2727273,15.9090909 C15.2727273,15.5578182 15.5578182,15.2727273 15.9090909,15.2727273 C17.6635455,15.2727273 19.0909091,13.8453636 19.0909091,12.0909091 C19.0909091,10.3364545 17.6635455,8.90909091 15.9090909,8.90909091 C14.1546364,8.90909091 12.7272727,10.3364545 12.7272727,12.0909091 C12.7272727,12.4421818 12.4421818,12.7272727 12.0909091,12.7272727 C11.7396364,12.7272727 11.4545455,12.4421818 11.4545455,12.0909091 C11.4545455,9.63454545 13.4527273,7.63636364 15.9090909,7.63636364 C18.3648182,7.63636364 20.3636364,9.63454545 20.3636364,12.0909091 C20.3636364,14.3315455 18.7014545,16.1903636 16.5454545,16.5002727 L16.5454545,16.5002727 Z" transform="translate(19.09 19.09)" stroke="none" filter="url('#Sivv5e5t14906')" style="fill-opacity: 0.8;" class="secondary-fill"></path>
  </g></g><g class="highlight"><g fill="#ffffff" fill-rule="evenodd" stroke="#ffffff" style="stroke-width: 2;">
    
    <path fill="#ffffff" d="M15.9090909,0 C7.13681818,0 0,7.13681818 0,15.9090909 C0,24.6813636 7.13681818,31.8181818 15.9090909,31.8181818 C24.6813636,31.8181818 31.8181818,24.6813636 31.8181818,15.9090909 C31.8181818,7.13681818 24.6813636,0 15.9090909,0 L15.9090909,0 Z M15.9090909,24.1818182 C15.5578182,24.1818182 15.2727273,23.8973636 15.2727273,23.5454545 C15.2727273,23.1935455 15.5578182,22.9090909 15.9090909,22.9090909 C16.261,22.9090909 16.5454545,23.1935455 16.5454545,23.5454545 C16.5454545,23.8973636 16.261,24.1818182 15.9090909,24.1818182 L15.9090909,24.1818182 Z M16.5454545,16.5002727 L16.5454545,18.4545455 C16.5454545,18.8064545 16.2603636,19.0909091 15.9090909,19.0909091 C15.5578182,19.0909091 15.2727273,18.8064545 15.2727273,18.4545455 L15.2727273,15.9090909 C15.2727273,15.5578182 15.5578182,15.2727273 15.9090909,15.2727273 C17.6635455,15.2727273 19.0909091,13.8453636 19.0909091,12.0909091 C19.0909091,10.3364545 17.6635455,8.90909091 15.9090909,8.90909091 C14.1546364,8.90909091 12.7272727,10.3364545 12.7272727,12.0909091 C12.7272727,12.4421818 12.4421818,12.7272727 12.0909091,12.7272727 C11.7396364,12.7272727 11.4545455,12.4421818 11.4545455,12.0909091 C11.4545455,9.63454545 13.4527273,7.63636364 15.9090909,7.63636364 C18.3648182,7.63636364 20.3636364,9.63454545 20.3636364,12.0909091 C20.3636364,14.3315455 18.7014545,16.1903636 16.5454545,16.5002727 L16.5454545,16.5002727 Z" transform="translate(19.09 19.09)" stroke="#ffffff" style="stroke-width: 2;"></path>
  </g></g><g class="base"><g fill="none" fill-rule="evenodd" stroke="none" class="main-fill">
    
    <path fill="none" d="M15.9090909,0 C7.13681818,0 0,7.13681818 0,15.9090909 C0,24.6813636 7.13681818,31.8181818 15.9090909,31.8181818 C24.6813636,31.8181818 31.8181818,24.6813636 31.8181818,15.9090909 C31.8181818,7.13681818 24.6813636,0 15.9090909,0 L15.9090909,0 Z M15.9090909,24.1818182 C15.5578182,24.1818182 15.2727273,23.8973636 15.2727273,23.5454545 C15.2727273,23.1935455 15.5578182,22.9090909 15.9090909,22.9090909 C16.261,22.9090909 16.5454545,23.1935455 16.5454545,23.5454545 C16.5454545,23.8973636 16.261,24.1818182 15.9090909,24.1818182 L15.9090909,24.1818182 Z M16.5454545,16.5002727 L16.5454545,18.4545455 C16.5454545,18.8064545 16.2603636,19.0909091 15.9090909,19.0909091 C15.5578182,19.0909091 15.2727273,18.8064545 15.2727273,18.4545455 L15.2727273,15.9090909 C15.2727273,15.5578182 15.5578182,15.2727273 15.9090909,15.2727273 C17.6635455,15.2727273 19.0909091,13.8453636 19.0909091,12.0909091 C19.0909091,10.3364545 17.6635455,8.90909091 15.9090909,8.90909091 C14.1546364,8.90909091 12.7272727,10.3364545 12.7272727,12.0909091 C12.7272727,12.4421818 12.4421818,12.7272727 12.0909091,12.7272727 C11.7396364,12.7272727 11.4545455,12.4421818 11.4545455,12.0909091 C11.4545455,9.63454545 13.4527273,7.63636364 15.9090909,7.63636364 C18.3648182,7.63636364 20.3636364,9.63454545 20.3636364,12.0909091 C20.3636364,14.3315455 18.7014545,16.1903636 16.5454545,16.5002727 L16.5454545,16.5002727 Z" transform="translate(19.09 19.09)" stroke="none" class="main-fill"></path>
  </g></g><style>
          .main-fill {fill: #0055AA;}
          .main-stroke {stroke: #0055AA;}
          .secondary-fill {fill: #AAAAAA;}
          .secondary-stroke {stroke: #AAAAAA;}

          .main-fill--darken {fill: #002f5d;}
          .main-stroke--darken {stroke: #002f5d;}
          .secondary-fill--darken {fill: #848484;}
          .secondary-stroke--darken {stroke: #848484;}

          .main-fill--darkener {fill: #00152a;}
          .main-stroke--darkener {stroke: #00152a;}
          .secondary-fill--darkener {fill: #6a6a6a;}
          .secondary-stroke--darkener {stroke: #6a6a6a;}
        </style></svg>